<svg xmlns="http://www.w3.org/2000/svg" xmlns:xlink="http://www.w3.org/1999/xlink" width="500" zoomAndPan="magnify" viewBox="0 0 375 374.999991" height="500" preserveAspectRatio="xMidYMid meet" version="1.0"><defs><clipPath id="7df9be8573"><path d="M 73.332031 8.867188 L 357.320312 8.867188 L 357.320312 292.855469 L 73.332031 292.855469 Z M 73.332031 8.867188 " clip-rule="nonzero"/></clipPath><clipPath id="1b50dbdeca"><path d="M 90.910156 8.867188 L 339.742188 8.867188 C 344.402344 8.867188 348.875 10.71875 352.171875 14.015625 C 355.46875 17.3125 357.320312 21.785156 357.320312 26.445312 L 357.320312 275.277344 C 357.320312 279.9375 355.46875 284.410156 352.171875 287.707031 C 348.875 291.003906 344.402344 292.855469 339.742188 292.855469 L 90.910156 292.855469 C 86.25 292.855469 81.777344 291.003906 78.480469 287.707031 C 75.183594 284.410156 73.332031 279.9375 73.332031 275.277344 L 73.332031 26.445312 C 73.332031 21.785156 75.183594 17.3125 78.480469 14.015625 C 81.777344 10.71875 86.25 8.867188 90.910156 8.867188 Z M 90.910156 8.867188 " clip-rule="nonzero"/></clipPath><clipPath id="e61c2aeddb"><path d="M 9.925781 74.34375 L 293.914062 74.34375 L 293.914062 358.332031 L 9.925781 358.332031 Z M 9.925781 74.34375 " clip-rule="nonzero"/></clipPath><clipPath id="06a9a70348"><path d="M 27.503906 74.34375 L 276.335938 74.34375 C 280.996094 74.34375 285.46875 76.195312 288.765625 79.492188 C 292.058594 82.789062 293.914062 87.261719 293.914062 91.921875 L 293.914062 340.753906 C 293.914062 345.414062 292.058594 349.886719 288.765625 353.183594 C 285.46875 356.480469 280.996094 358.332031 276.335938 358.332031 L 27.503906 358.332031 C 22.84375 358.332031 18.371094 356.480469 15.074219 353.183594 C 11.777344 349.886719 9.925781 345.414062 9.925781 340.753906 L 9.925781 91.921875 C 9.925781 87.261719 11.777344 82.789062 15.074219 79.492188 C 18.371094 76.195312 22.84375 74.34375 27.503906 74.34375 Z M 27.503906 74.34375 " clip-rule="nonzero"/></clipPath><clipPath id="3e669434c3"><path d="M 9.925781 74.34375 L 294 74.34375 L 294 358.59375 L 9.925781 358.59375 Z M 9.925781 74.34375 " clip-rule="nonzero"/></clipPath><clipPath id="2f366a4d72"><path d="M 27.503906 74.34375 L 276.328125 74.34375 C 280.992188 74.34375 285.460938 76.195312 288.757812 79.492188 C 292.054688 82.789062 293.90625 87.261719 293.90625 91.921875 L 293.90625 340.746094 C 293.90625 345.410156 292.054688 349.878906 288.757812 353.175781 C 285.460938 356.472656 280.992188 358.324219 276.328125 358.324219 L 27.503906 358.324219 C 22.84375 358.324219 18.371094 356.472656 15.074219 353.175781 C 11.777344 349.878906 9.925781 345.410156 9.925781 340.746094 L 9.925781 91.921875 C 9.925781 87.261719 11.777344 82.789062 15.074219 79.492188 C 18.371094 76.195312 22.84375 74.34375 27.503906 74.34375 Z M 27.503906 74.34375 " clip-rule="nonzero"/></clipPath><clipPath id="fe3b59738b"><path d="M 20.53125 98.433594 L 272.53125 98.433594 L 272.53125 350.433594 L 20.53125 350.433594 Z M 20.53125 98.433594 " clip-rule="nonzero"/></clipPath></defs><g clip-path="url(#7df9be8573)"><g clip-path="url(#1b50dbdeca)"><path fill="#000000" d="M 73.332031 8.867188 L 357.320312 8.867188 L 357.320312 292.855469 L 73.332031 292.855469 Z M 73.332031 8.867188 " fill-opacity="1" fill-rule="nonzero"/></g></g><g clip-path="url(#e61c2aeddb)"><g clip-path="url(#06a9a70348)"><path fill="#ffffff" d="M 9.925781 74.34375 L 293.914062 74.34375 L 293.914062 358.332031 L 9.925781 358.332031 Z M 9.925781 74.34375 " fill-opacity="1" fill-rule="nonzero"/></g></g><g clip-path="url(#3e669434c3)"><g clip-path="url(#2f366a4d72)"><path stroke-linecap="butt" transform="matrix(0.75, 0, 0, 0.75, 9.92596, 74.344543)" fill="none" stroke-linejoin="miter" d="M 23.437263 -0.00105749 L 355.20291 -0.00105749 C 361.421661 -0.00105749 367.379994 2.467693 371.775828 6.863526 C 376.171662 11.25936 378.640412 17.222902 378.640412 23.436444 L 378.640412 355.202091 C 378.640412 361.420841 376.171662 367.379175 371.775828 371.775009 C 367.379994 376.170842 361.421661 378.639592 355.20291 378.639592 L 23.437263 378.639592 C 17.223721 378.639592 11.260179 376.170842 6.864346 371.775009 C 2.468512 367.379175 -0.000238131 361.420841 -0.000238131 355.202091 L -0.000238131 23.436444 C -0.000238131 17.222902 2.468512 11.25936 6.864346 6.863526 C 11.260179 2.467693 17.223721 -0.00105749 23.437263 -0.00105749 Z M 23.437263 -0.00105749 " stroke="#000000" stroke-width="4" stroke-opacity="1" stroke-miterlimit="4"/></g></g><path stroke-linecap="butt" transform="matrix(0.54515, -0.511626, 0.511626, 0.54515, 280.476754, 351.543728)" fill="none" stroke-linejoin="miter" d="M 0.00166894 0.501755 L 138.445956 0.501188 " stroke="#000000" stroke-width="1" stroke-opacity="1" stroke-miterlimit="4"/><path stroke-linecap="butt" transform="matrix(0.528654, -0.528654, 0.528654, 0.528654, 15.082821, 87.952319)" fill="none" stroke-linejoin="miter" d="M 0.00218503 0.498776 L 138.44338 0.498776 " stroke="#000000" stroke-width="1" stroke-opacity="1" stroke-miterlimit="4"/><g clip-path="url(#fe3b59738b)"><path fill="#231f20" d="M 149.609375 165.855469 C 149.800781 167.613281 150.066406 169.359375 150.40625 171.097656 C 150.746094 172.832031 151.160156 174.550781 151.644531 176.25 C 152.128906 177.949219 152.683594 179.628906 153.3125 181.28125 C 153.9375 182.933594 154.636719 184.558594 155.398438 186.152344 C 156.164062 187.746094 156.996094 189.304688 157.890625 190.832031 C 158.785156 192.355469 159.746094 193.839844 160.769531 195.28125 C 161.789062 196.722656 162.871094 198.121094 164.011719 199.472656 C 165.152344 200.824219 166.347656 202.125 167.597656 203.375 C 168.847656 204.625 170.148438 205.820312 171.5 206.960938 C 172.851562 208.101562 174.25 209.183594 175.691406 210.203125 C 177.136719 211.226562 178.617188 212.1875 180.140625 213.082031 C 181.667969 213.980469 183.226562 214.808594 184.820312 215.574219 C 186.414062 216.339844 188.039062 217.035156 189.691406 217.660156 C 191.34375 218.289062 193.023438 218.84375 194.722656 219.328125 C 196.421875 219.816406 198.140625 220.226562 199.875 220.566406 C 201.613281 220.90625 203.359375 221.171875 205.117188 221.363281 C 222.15625 223.230469 244.148438 224.4375 272.542969 224.4375 C 244.148438 224.4375 222.15625 225.644531 205.117188 227.511719 C 203.359375 227.703125 201.613281 227.96875 199.875 228.308594 C 198.140625 228.648438 196.421875 229.0625 194.722656 229.546875 C 193.023438 230.03125 191.34375 230.585938 189.691406 231.214844 C 188.039062 231.839844 186.414062 232.535156 184.820312 233.300781 C 183.226562 234.066406 181.667969 234.894531 180.140625 235.792969 C 178.617188 236.6875 177.132812 237.648438 175.691406 238.671875 C 174.25 239.691406 172.851562 240.773438 171.5 241.914062 C 170.148438 243.054688 168.847656 244.25 167.597656 245.5 C 166.347656 246.75 165.152344 248.050781 164.011719 249.402344 C 162.871094 250.753906 161.789062 252.152344 160.769531 253.59375 C 159.746094 255.035156 158.785156 256.519531 157.890625 258.042969 C 156.992188 259.570312 156.164062 261.128906 155.398438 262.722656 C 154.636719 264.316406 153.9375 265.941406 153.3125 267.59375 C 152.683594 269.246094 152.128906 270.925781 151.644531 272.625 C 151.160156 274.324219 150.746094 276.042969 150.40625 277.777344 C 150.066406 279.511719 149.800781 281.261719 149.609375 283.019531 C 147.742188 300.054688 146.535156 322.050781 146.535156 350.441406 C 146.535156 322.050781 145.328125 300.054688 143.460938 283.019531 C 143.269531 281.261719 143.003906 279.511719 142.664062 277.777344 C 142.324219 276.042969 141.914062 274.324219 141.425781 272.625 C 140.941406 270.925781 140.386719 269.246094 139.757812 267.59375 C 139.132812 265.941406 138.4375 264.316406 137.671875 262.722656 C 136.90625 261.128906 136.078125 259.570312 135.179688 258.042969 C 134.285156 256.519531 133.324219 255.035156 132.304688 253.59375 C 131.28125 252.152344 130.199219 250.753906 129.058594 249.402344 C 127.917969 248.050781 126.722656 246.75 125.472656 245.5 C 124.222656 244.25 122.921875 243.054688 121.570312 241.914062 C 120.21875 240.773438 118.820312 239.691406 117.378906 238.671875 C 115.9375 237.648438 114.453125 236.6875 112.929688 235.792969 C 111.402344 234.894531 109.84375 234.066406 108.25 233.300781 C 106.65625 232.535156 105.03125 231.839844 103.378906 231.214844 C 101.726562 230.585938 100.046875 230.03125 98.347656 229.546875 C 96.648438 229.0625 94.929688 228.648438 93.195312 228.308594 C 91.460938 227.96875 89.710938 227.703125 87.953125 227.511719 C 70.917969 225.644531 48.921875 224.4375 20.53125 224.4375 C 48.921875 224.4375 70.917969 223.230469 87.953125 221.363281 C 89.710938 221.171875 91.460938 220.90625 93.195312 220.566406 C 94.929688 220.226562 96.648438 219.816406 98.347656 219.328125 C 100.046875 218.84375 101.726562 218.289062 103.378906 217.660156 C 105.03125 217.035156 106.65625 216.339844 108.25 215.574219 C 109.84375 214.808594 111.402344 213.980469 112.929688 213.082031 C 114.453125 212.1875 115.9375 211.226562 117.378906 210.203125 C 118.820312 209.183594 120.21875 208.101562 121.570312 206.960938 C 122.921875 205.820312 124.222656 204.625 125.472656 203.375 C 126.722656 202.125 127.917969 200.824219 129.058594 199.472656 C 130.199219 198.121094 131.28125 196.722656 132.304688 195.28125 C 133.324219 193.839844 134.285156 192.355469 135.179688 190.832031 C 136.078125 189.304688 136.90625 187.746094 137.671875 186.152344 C 138.4375 184.558594 139.132812 182.933594 139.757812 181.28125 C 140.386719 179.628906 140.941406 177.949219 141.425781 176.25 C 141.914062 174.550781 142.324219 172.832031 142.664062 171.097656 C 143.003906 169.359375 143.269531 167.613281 143.460938 165.855469 C 145.328125 148.820312 146.535156 126.824219 146.535156 98.433594 C 146.535156 126.824219 147.742188 148.820312 149.609375 165.855469 Z M 149.609375 165.855469 " fill-opacity="1" fill-rule="nonzero"/></g></svg>